<?xml version="1.0" standalone="no"?>
<!DOCTYPE svg PUBLIC "-//W3C//DTD SVG 20010904//EN"
 "http://www.w3.org/TR/2001/REC-SVG-20010904/DTD/svg10.dtd">
<svg version="1.0" xmlns="http://www.w3.org/2000/svg"
 width="1280.000000pt" height="1280.000000pt" viewBox="0 0 1280.000000 1280.000000"
 preserveAspectRatio="xMidYMid meet">

<g transform="translate(0.000000,1280.000000) scale(0.100000,-0.100000)"
fill="#000000" stroke="none">
<path d="M2510 11673 c-133 -4 -306 -23 -415 -44 -562 -112 -880 -468 -995
-1118 -53 -299 -51 -152 -48 -4501 3 -3781 5 -4032 21 -4140 25 -164 54 -291
89 -389 192 -543 606 -791 1418 -850 180 -13 7748 -14 7937 -1 401 28 694 93
926 204 383 184 600 493 666 946 29 204 31 419 31 4389 0 4361 1 4196 -50
4435 -114 526 -471 896 -979 1015 -252 59 75 55 -4411 56 -2258 1 -4143 0
-4190 -2z m8315 -606 c220 -46 326 -97 441 -212 126 -126 192 -275 230 -520
18 -116 19 -269 19 -4175 0 -3906 -1 -4059 -19 -4175 -38 -246 -104 -394 -232
-522 -67 -66 -100 -90 -176 -127 -112 -55 -251 -92 -396 -106 -119 -11 -2839
-12 -6252 -1 l-2095 7 -97 26 c-381 104 -539 374 -568 973 -17 334 -8 7969 9
8089 19 137 56 270 102 365 33 69 58 102 123 167 67 68 97 89 176 127 101 48
229 82 365 96 44 5 1927 8 4185 7 3798 -2 4111 -3 4185 -19z"/>
<path d="M8820 8834 c-314 -18 -716 -90 -1005 -180 -259 -80 -439 -155 -755
-313 -247 -124 -327 -156 -425 -169 -83 -11 -148 1 -225 41 -591 309 -877 419
-1355 520 -354 76 -840 106 -1206 76 -119 -10 -136 -13 -154 -34 -11 -12 -63
-56 -115 -97 -139 -109 -323 -282 -402 -377 l-28 -34 0 -2152 c0 -2377 -4
-2214 62 -2270 l31 -26 1021 8 c1531 12 1560 11 1722 -53 95 -38 134 -64 230
-154 120 -113 225 -145 397 -121 116 16 211 52 413 157 100 52 214 108 255
124 144 60 136 60 1330 48 596 -5 1129 -8 1184 -6 105 5 159 23 198 66 48 53
46 -35 47 2163 0 2240 3 2117 -53 2200 -28 42 -82 79 -116 79 -37 0 -184 156
-300 318 -106 150 -112 156 -166 171 -40 11 -462 22 -585 15z m-4195 -314
c411 -49 803 -151 1190 -312 172 -72 466 -225 506 -264 43 -42 85 -130 100
-207 10 -51 33 -3426 24 -3436 -3 -2 -31 10 -62 27 -421 223 -1064 433 -1557
508 -187 28 -440 54 -536 55 -156 1 -206 11 -240 45 -63 62 -61 -13 -54 1893
l7 1724 221 -6 c127 -3 297 -14 401 -27z m4557 11 c15 -8 32 -25 37 -40 8 -18
11 -525 9 -1736 l-3 -1710 -28 -57 c-44 -90 -47 -91 -307 -99 -376 -12 -729
-68 -1100 -173 -287 -81 -493 -162 -790 -309 -124 -61 -228 -113 -233 -115 -4
-2 -6 781 -5 1740 l3 1743 24 52 c40 90 97 132 333 247 495 242 967 389 1430
446 214 26 243 27 438 26 116 -1 173 -6 192 -15z m-5459 -3740 c9 -24 17 -50
17 -58 0 -14 -216 -293 -227 -293 -2 0 -3 827 -1 1838 l3 1837 -23 64 c-27 74
-40 48 108 209 l95 104 5 -1828 c5 -1712 6 -1832 23 -1873z m5855 3559 c23
-32 64 -82 90 -111 l47 -53 -3 -1560 c-2 -859 -6 -1709 -10 -1891 l-7 -330
-46 75 c-26 41 -68 112 -94 158 l-47 82 12 83 c8 61 10 542 8 1845 -2 969 -1
1762 2 1762 3 0 24 -27 48 -60z m-130 -3867 c108 -200 134 -254 128 -260 -6
-7 -2387 -26 -2393 -20 -7 8 274 119 447 177 301 100 613 171 920 211 219 28
350 36 601 38 l217 1 80 -147z m-4763 108 c259 -31 613 -110 812 -182 146 -53
277 -105 378 -152 170 -79 169 -77 25 -77 -358 2 -2222 40 -2299 48 l-65 7
140 160 c76 88 149 172 160 187 20 25 27 27 115 31 200 9 564 -2 734 -22z"/>
</g>
</svg>
